<svg width="42" height="42" viewBox="0 0 42 42" fill="none" xmlns="http://www.w3.org/2000/svg">
<path d="M35.637 16.9881H6.36305C3.40164 16.9881 1.00048 14.567 1.00048 11.6256V6.36305C1.00048 3.40164 3.42165 1.00048 6.36305 1.00048H35.637C38.5984 1.00048 40.9996 3.42165 40.9996 6.36305V11.6256C40.9996 14.567 38.5784 16.9881 35.637 16.9881Z" stroke="#292D32" stroke-width="2" stroke-linecap="round" stroke-linejoin="round"/>
<path d="M35.637 40.9996H6.36305C3.40164 40.9996 1.00048 38.5784 1.00048 35.637V30.3745C1.00048 27.4131 3.42165 25.0119 6.36305 25.0119H35.637C38.5984 25.0119 40.9996 27.4331 40.9996 30.3745V35.637C40.9996 38.5784 38.5784 40.9996 35.637 40.9996Z" stroke="#292D32" stroke-width="2" stroke-linecap="round" stroke-linejoin="round"/>
<path d="M8.98475 6.9838V10.9857" stroke="#292D32" stroke-width="2" stroke-linecap="round" stroke-linejoin="round"/>
<path d="M16.9886 6.9838V10.9857" stroke="#292D32" stroke-width="2" stroke-linecap="round" stroke-linejoin="round"/>
<path d="M8.98475 30.9952V34.9972" stroke="#292D32" stroke-width="2" stroke-linecap="round" stroke-linejoin="round"/>
<path d="M16.9886 30.9952V34.9972" stroke="#292D32" stroke-width="2" stroke-linecap="round" stroke-linejoin="round"/>
<path d="M24.9924 8.98475H32.9962" stroke="#292D32" stroke-width="2" stroke-linecap="round" stroke-linejoin="round"/>
<path d="M24.9924 32.9962H32.9962" stroke="#292D32" stroke-width="2" stroke-linecap="round" stroke-linejoin="round"/>
</svg>
