<svg width="41" height="40" viewBox="0 0 41 40" fill="none" xmlns="http://www.w3.org/2000/svg">
<path d="M39.3712 16.8702L37.4608 25.2161C35.8234 32.4239 32.5874 35.339 26.5054 34.74C25.5307 34.6601 24.4781 34.4804 23.3475 34.2009L20.0725 33.4022C11.9437 31.4256 9.429 27.3125 11.3394 18.9666L13.2498 10.6007C13.6396 8.90362 14.1075 7.42611 14.6923 6.20817C16.973 1.37633 20.8523 0.0785227 27.3631 1.65586L30.6186 2.43454C38.7864 4.39124 41.2816 8.52426 39.3712 16.8702Z" stroke="#292D32" stroke-width="2" stroke-linecap="round" stroke-linejoin="round"/>
<path d="M26.5058 34.7383C25.2972 35.5769 23.7767 36.2757 21.9248 36.8946L18.8449 37.9329C11.1059 40.4886 7.03171 38.3522 4.51703 30.4256L2.02184 22.5389C-0.473341 14.6123 1.59298 10.4194 9.33196 7.86367L12.412 6.82542C13.2112 6.56586 13.9714 6.34623 14.6927 6.20647C14.1079 7.42441 13.64 8.90192 13.2502 10.5991L11.3398 18.9649C9.42942 27.3108 11.9441 31.4239 20.0729 33.4005L23.3479 34.1992C24.4785 34.4787 25.5312 34.6584 26.5058 34.7383Z" stroke="#292D32" stroke-width="2" stroke-linecap="round" stroke-linejoin="round"/>
<path d="M21.7892 13.0543L31.2437 15.5102" stroke="#292D32" stroke-width="2" stroke-linecap="round" stroke-linejoin="round"/>
<path d="M19.8775 20.7836L25.5307 22.2611" stroke="#292D32" stroke-width="2" stroke-linecap="round" stroke-linejoin="round"/>
</svg>
