<svg width="41" height="42" viewBox="0 0 41 42" fill="none" xmlns="http://www.w3.org/2000/svg">
<path d="M10.175 32.9437H5.20751C2.4218 32.9437 1.01916 31.507 1.01916 28.6538V5.30906C1.01916 2.45581 2.4218 1.01916 5.20751 1.01916H13.5841C16.3698 1.01916 17.7723 2.45581 17.7723 5.30906V9.00029" stroke="#292D32" stroke-width="2" stroke-miterlimit="10" stroke-linecap="round" stroke-linejoin="round"/>
<path d="M30.9593 13.8288V36.0962C30.9593 39.3086 29.4009 40.9248 26.2646 40.9248H14.8879C11.7516 40.9248 10.1737 39.3086 10.1737 36.0962V13.8288C10.1737 10.6164 11.7516 9.00025 14.8879 9.00025H26.2646C29.4009 9.00025 30.9593 10.6164 30.9593 13.8288Z" stroke="#292D32" stroke-width="2" stroke-miterlimit="10" stroke-linecap="round" stroke-linejoin="round"/>
<path d="M23.2277 9.00029V5.30906C23.2277 2.45581 24.6302 1.01916 27.4159 1.01916H35.7925C38.5782 1.01916 39.9809 2.45581 39.9809 5.30906V28.6538C39.9809 31.507 38.5782 32.9437 35.7925 32.9437H30.9614" stroke="#292D32" stroke-width="2" stroke-miterlimit="10" stroke-linecap="round" stroke-linejoin="round"/>
<path d="M16.6034 18.9766H24.3956" stroke="#292D32" stroke-width="2" stroke-miterlimit="10" stroke-linecap="round" stroke-linejoin="round"/>
<path d="M16.6034 24.9624H24.3956" stroke="#292D32" stroke-width="2" stroke-miterlimit="10" stroke-linecap="round" stroke-linejoin="round"/>
<path d="M20.4996 40.9246V34.9388" stroke="#292D32" stroke-width="2" stroke-miterlimit="10" stroke-linecap="round" stroke-linejoin="round"/>
</svg>
